Coordinates
version=1
nRows=21
nColumns=22
inDegrees=yes

Units are S.I. units (second, meters, Newtons, ...)
If the header above contains a line with 'inDegrees', this indicates whether rotational values are in degrees (yes) or radians (no).

endheader
time	pelvis_tilt	pelvis_list	pelvis_rotation	pelvis_tx	pelvis_ty	pelvis_tz	hip_flexion_r	hip_adduction_r	hip_rotation_r	knee_angle_r	ankle_angle_r	subtalar_angle_r	hip_flexion_l	hip_adduction_l	hip_rotation_l	knee_angle_l	ankle_angle_l	subtalar_angle_l	lumbar_extension	lumbar_bending	lumbar_rotation
      3.76000000	      4.30359592	      0.79148315	     -2.08469411	      0.59640232	      1.00505564	     -0.17250300	     21.58405349	     -0.78088175	     -5.22841921	    -19.27066633	      0.59871574	      9.45935018	     -1.17584861	      4.55717084	     -9.80961378	    -19.76878127	     15.91123953	     -3.47529824	    -16.84833281	     -2.91391681	     -0.34616516
      3.77000000	      4.37919819	      0.78924452	     -2.16437318	      0.60376406	      1.00443156	     -0.17184479	     21.26460037	     -0.39581386	     -4.66575035	    -17.54271993	     -0.35461848	     10.39125457	     -1.73469570	      4.52945302	     -9.95951548	    -19.77179443	     16.23977538	     -3.34282804	    -16.79508570	     -2.92101471	     -0.21393508
      3.78000000	      4.45764155	      0.78182253	     -2.23237296	      0.61121017	      1.00374453	     -0.17116419	     20.94268697	     -0.03405364	     -4.11938282	    -16.06180115	     -1.12201107	     11.17490190	     -2.26830530	      4.48849253	    -10.11394951	    -19.83949217	     16.56740465	     -3.22146002	    -16.72528710	     -2.91756808	     -0.07894460
      3.79000000	      4.54901071	      0.78787553	     -2.28218632	      0.61877337	      1.00303756	     -0.17052224	     20.62505474	      0.27309756	     -3.66600640	    -14.86725386	     -1.63790510	     11.85030734	     -2.81552170	      4.46689591	    -10.22160436	    -19.91707723	     16.86974058	     -3.07549503	    -16.64539151	     -2.91331024	      0.03512669
      3.80000000	      4.61750966	      0.79534240	     -2.31227224	      0.62645150	      1.00225532	     -0.16989613	     20.36383122	      0.54411450	     -3.34847728	    -13.98442534	     -1.91682065	     12.29436523	     -3.32299194	      4.44135505	    -10.30551484	    -20.03349811	     17.16144655	     -2.93854215	    -16.51357251	     -2.89846558	      0.12268703
      3.81000000	      4.71661741	      0.81213746	     -2.30981472	      0.63420621	      1.00148573	     -0.16930421	     20.09888205	      0.76823268	     -3.16213019	    -13.40707174	     -1.87306481	     12.61754766	     -3.83564408	      4.42286819	    -10.32511712	    -20.21128645	     17.43408161	     -2.75398452	    -16.40491867	     -2.88341639	      0.19486691
      3.82000000	      4.77928901	      0.84263253	     -2.27236122	      0.64202588	      1.00062036	     -0.16876904	     19.92710561	      0.94216814	     -3.14165638	    -13.16369071	     -1.61684577	     12.70076168	     -4.27018690	      4.41023560	    -10.29289683	    -20.46918310	     17.71202309	     -2.59869643	    -16.24150806	     -2.86394899	      0.23325352
      3.83000000	      4.83816787	      0.87129324	     -2.19624773	      0.64994277	      0.99977065	     -0.16824392	     19.77828401	      1.08874116	     -3.21474947	    -13.17744139	     -1.28994184	     12.62518080	     -4.68294193	      4.38395741	    -10.21541879	    -20.76765099	     17.92611331	     -2.40981940	    -16.05598258	     -2.83572488	      0.22669977
      3.84000000	      4.89110186	      0.88444144	     -2.07529330	      0.65790837	      0.99893757	     -0.16777971	     19.65750974	      1.21895923	     -3.34974106	    -13.42520480	     -1.01996669	     12.23498854	     -5.05599875	      4.33420316	    -10.05159445	    -21.13537997	     18.10605830	     -2.11436639	    -15.85981648	     -2.76898501	      0.17874448
      3.85000000	      4.90170179	      0.89149617	     -1.91324171	      0.66590040	      0.99807049	     -0.16734516	     19.61393059	      1.32977332	     -3.49307702	    -13.88765636	     -0.89851062	     11.53214907	     -5.34388880	      4.26242770	     -9.84620710	    -21.57934956	     18.26692643	     -1.85325664	    -15.61105473	     -2.68391021	      0.09127988
      3.86000000	      4.89323532	      0.88808672	     -1.73291800	      0.67390375	      0.99723466	     -0.16691942	     19.62593418	      1.43098840	     -3.61007310	    -14.53094580	     -1.03760745	     10.44564044	     -5.57853366	      4.17276428	     -9.60245660	    -22.08191065	     18.38736929	     -1.57130800	    -15.34136118	     -2.58007354	     -0.00024205
      3.87000000	      4.86697771	      0.85869246	     -1.50017248	      0.68189905	      0.99645679	     -0.16656279	     19.68379244	      1.52636380	     -3.72281714	    -15.30605974	     -1.41177929	      9.05709827	     -5.74836409	      4.04605936	     -9.28418750	    -22.66587306	     18.46158740	     -1.27458047	    -15.05833844	     -2.43168468	     -0.13730076
      3.88000000	      4.82846828	      0.80040033	     -1.22453064	      0.68988653	      0.99576517	     -0.16628226	     19.79258368	      1.61578808	     -3.85764206	    -16.20220126	     -1.98661700	      7.45589783	     -5.86222253	      3.88297523	     -8.90993378	    -23.32072005	     18.49323619	     -0.95325916	    -14.76860029	     -2.23488774	     -0.30448373
      3.89000000	      4.79216546	      0.71953205	     -0.93935740	      0.69788261	      0.99519882	     -0.16603879	     19.93126612	      1.70269672	     -3.98159215	    -17.18643641	     -2.63713231	      5.77851326	     -5.94555037	      3.69909966	     -8.50041866	    -24.02850758	     18.45030042	     -0.60245265	    -14.48449875	     -2.00412729	     -0.46960825
      3.90000000	      4.77054407	      0.61307357	     -0.65052483	      0.70588704	      0.99477892	     -0.16582050	     20.08043996	      1.79295483	     -4.10458268	    -18.24035676	     -3.20787496	      4.19613784	     -6.00924749	      3.49016009	     -8.07674004	    -24.79234008	     18.34367258	     -0.22464858	    -14.22157354	     -1.73868708	     -0.63063851
      3.91000000	      4.77335657	      0.47837806	     -0.36866209	      0.71390453	      0.99453031	     -0.16561511	     20.20892567	      1.90015812	     -4.20556136	    -19.32297539	     -3.61075628	      2.79671979	     -6.06710286	      3.25324516	     -7.66355231	    -25.60467688	     18.16996504	      0.18264828	    -13.99038244	     -1.43395088	     -0.77839837
      3.92000000	      4.80959967	      0.31179675	     -0.10929653	      0.72193566	      0.99446676	     -0.16535468	     20.27924864	      2.04755638	     -4.25905613	    -20.38090124	     -3.79511968	      1.60294408	     -6.12968193	      2.98242671	     -7.27556980	    -26.46499302	     17.91695991	      0.62438327	    -13.79942611	     -1.09900551	     -0.89326329
      3.93000000	      4.88295727	      0.11260942	      0.13514699	      0.72996616	      0.99459571	     -0.16504818	     20.26535808	      2.23850569	     -4.28196145	    -21.37324314	     -3.76470899	      0.63868763	     -6.19844404	      2.67063164	     -6.92420329	    -27.37421031	     17.59471271	      1.09137650	    -13.65557417	     -0.72782668	     -0.98903617
      3.94000000	      4.99321866	     -0.11911858	      0.35533027	      0.73800070	      0.99491561	     -0.16466239	     20.14223886	      2.48124312	     -4.27997098	    -22.25241268	     -3.53612116	     -0.13221446	     -6.27784924	      2.31723516	     -6.61204326	    -28.32446258	     17.18978175	      1.58922809	    -13.55550551	     -0.32634812	     -1.04843585
      3.95000000	      5.13123264	     -0.39091544	      0.57202030	      0.74602130	      0.99539462	     -0.16423259	     19.90524682	      2.77143353	     -4.31379700	    -22.99114699	     -3.12966871	     -0.65976717	     -6.35131412	      1.90919206	     -6.32372073	    -29.32343971	     16.74801899	      2.04599289	    -13.48822282	      0.11702007	     -1.08079682
      3.96000000	      5.29680151	     -0.65160423	      0.73927579	      0.75401118	      0.99605577	     -0.16367293	     19.54977371	      3.07493410	     -4.33269648	    -23.57116372	     -2.66824862	     -1.17129580	     -6.43497073	      1.50227858	     -6.11205757	    -30.33570525	     16.11245520	      2.65892446	    -13.45576390	      0.52997284	     -1.07695987
